<svg width="132" height="132" viewBox="0 0 132 132" fill="none" xmlns="http://www.w3.org/2000/svg">
<path d="M89.5435 50.7066C89.927 51.0897 90.2312 51.5446 90.4388 52.0454C90.6464 52.5461 90.7533 53.0829 90.7533 53.625C90.7533 54.1671 90.6464 54.7039 90.4388 55.2046C90.2312 55.7054 89.927 56.1603 89.5435 56.5434L60.6685 85.4184C60.2854 85.802 59.8304 86.1062 59.3297 86.3138C58.8289 86.5214 58.2921 86.6282 57.75 86.6282C57.2079 86.6282 56.6712 86.5214 56.1704 86.3138C55.6696 86.1062 55.2147 85.802 54.8316 85.4184L42.4566 73.0434C41.6826 72.2694 41.2477 71.2196 41.2477 70.125C41.2477 69.0304 41.6826 67.9806 42.4566 67.2066C43.2306 66.4325 44.2804 65.9977 45.375 65.9977C46.4697 65.9977 47.5194 66.4325 48.2935 67.2066L57.75 76.6683L83.7066 50.7066C84.0897 50.323 84.5446 50.0188 85.0454 49.8112C85.5462 49.6036 86.0829 49.4968 86.625 49.4968C87.1671 49.4968 87.7039 49.6036 88.2047 49.8112C88.7054 50.0188 89.1604 50.323 89.5435 50.7066ZM119.625 66C119.625 76.606 116.48 86.9739 110.588 95.7924C104.695 104.611 96.3201 111.484 86.5214 115.543C76.7227 119.602 65.9405 120.664 55.5383 118.595C45.1361 116.525 35.581 111.418 28.0814 103.919C20.5818 96.419 15.4745 86.864 13.4054 76.4617C11.3363 66.0595 12.3982 55.2773 16.457 45.4786C20.5157 35.6799 27.389 27.3048 36.2076 21.4124C45.0262 15.5201 55.394 12.375 66 12.375C80.2177 12.39 93.8487 18.0446 103.902 28.098C113.955 38.1514 119.61 51.7824 119.625 66ZM111.375 66C111.375 57.0257 108.714 48.2529 103.728 40.791C98.7421 33.3291 91.6555 27.5133 83.3643 24.079C75.0731 20.6446 65.9497 19.7461 57.1478 21.4969C48.3459 23.2477 40.2609 27.5692 33.9151 33.915C27.5692 40.2608 23.2477 48.3459 21.4969 57.1478C19.7461 65.9497 20.6447 75.0731 24.079 83.3643C27.5133 91.6555 33.3291 98.7421 40.791 103.728C48.2529 108.714 57.0257 111.375 66 111.375C78.03 111.361 89.5634 106.576 98.0699 98.0699C106.576 89.5634 111.361 78.03 111.375 66Z" fill="#014955"/>
</svg>
