<svg width="20" height="20" viewBox="0 0 20 20" fill="none" xmlns="http://www.w3.org/2000/svg">
<path d="M7.57842 0.297622C9.0522 -0.0702852 10.5906 -0.0978492 12.0765 0.217544C13.5623 0.532952 14.9573 1.18308 16.1546 2.11793C17.3517 3.05276 18.3203 4.24806 18.9866 5.61305C19.653 6.97822 19.9997 8.47767 20.0003 9.99684C20.0006 11.7234 19.5535 13.4209 18.7034 14.9236C17.8533 16.4263 16.6287 17.6831 15.1487 18.572C13.6687 19.461 11.984 19.9523 10.2581 19.9968C8.5322 20.0414 6.824 19.6375 5.3001 18.8259L2.02568 19.9177C1.75473 20.008 1.46381 20.0214 1.18584 19.9558C0.907801 19.8902 0.653472 19.7477 0.451462 19.5457C0.249565 19.3436 0.107883 19.0893 0.0422827 18.8113C-0.0232876 18.5332 -0.0100059 18.2425 0.0803686 17.9715L1.17119 14.697C0.457901 13.3558 0.0594176 11.8695 0.00614986 10.3513C-0.0471005 8.83314 0.246026 7.32226 0.863572 5.93434C1.48113 4.5465 2.40727 3.31731 3.5706 2.34059C4.73395 1.36395 6.10474 0.665512 7.57842 0.297622ZM5.76982 8.84254C5.54162 8.84254 5.31796 8.91009 5.12822 9.03688C4.93847 9.16368 4.79075 9.34458 4.70342 9.55544C4.61623 9.76613 4.59355 9.9978 4.63799 10.2215C4.68249 10.4452 4.79216 10.6509 4.95342 10.8123C5.11478 10.9737 5.32042 11.0841 5.54424 11.1287C5.76806 11.1732 6.00039 11.1496 6.21123 11.0623C6.4219 10.9749 6.6021 10.8271 6.72881 10.6375C6.85547 10.4478 6.9231 10.2249 6.92314 9.99684C6.92314 9.69079 6.80164 9.39684 6.58525 9.18044C6.36897 8.96421 6.07563 8.84265 5.76982 8.84254ZM14.2308 8.84254C14.0027 8.84258 13.7798 8.91024 13.5901 9.03688C13.4004 9.16368 13.2527 9.34458 13.1653 9.55544C13.0781 9.76613 13.0545 9.99779 13.0989 10.2215C13.1434 10.4453 13.254 10.6509 13.4153 10.8123C13.5767 10.9737 13.7823 11.0842 14.0062 11.1287C14.2298 11.1731 14.4615 11.1495 14.6722 11.0623C14.883 10.9749 15.0639 10.8272 15.1907 10.6375C15.3173 10.4478 15.385 10.2249 15.3851 9.99684C15.3851 9.69082 15.2635 9.39684 15.0472 9.18044C14.8308 8.96403 14.5368 8.84254 14.2308 8.84254ZM10.0003 8.99977C9.44801 8.99977 9.00029 9.44749 9.00029 9.99977C9.00029 10.5521 9.44801 10.9998 10.0003 10.9998C10.5525 10.9997 11.0003 10.552 11.0003 9.99977C11.0003 9.44752 10.5525 8.99983 10.0003 8.99977Z" fill="#014955"/>
</svg>
