<svg width="24" height="24" viewBox="0 0 24 24" fill="none" xmlns="http://www.w3.org/2000/svg">
<path d="M15.4093 3.49559C15.5012 4.44637 14.729 5.26629 13.7856 5.37847C11.5872 5.25205 9.19037 5.5485 7.01572 5.38114C5.98212 5.3019 5.23538 4.51314 5.28456 3.49648C4.30013 3.55167 3.35669 3.29172 2.48246 3.8508C2.00163 4.15882 1.64465 4.73036 1.59548 5.29656V20.5786C1.74027 21.7279 2.63181 22.3573 3.76922 22.4348C5.92566 22.5808 8.25239 22.3181 10.427 22.4348C11.2466 22.66 11.1756 23.8627 10.3223 23.9411C8.02928 23.7897 5.48399 24.1343 3.22191 23.9375C1.57544 23.7942 0.128403 22.2852 0 20.6854V5.18884C0.154812 3.75554 1.19934 2.49762 2.61541 2.097C3.65721 1.80144 4.71357 2.00976 5.78178 1.91094C6.12965 1.09013 6.41833 0.276442 7.41732 0.0672335C9.25139 0.166942 11.3231 -0.109926 13.1299 0.0520993C14.1935 0.147356 14.5979 1.05363 14.9139 1.91272C16.064 2.02311 17.237 1.76138 18.3425 2.16555C21.8986 3.46621 20.3642 7.96019 20.6956 10.7885C20.5335 11.5889 19.3916 11.6298 19.1566 10.8384C19.0592 9.13354 19.2759 7.3112 19.1566 5.62061C19.1111 4.98141 18.8962 4.37872 18.3789 3.95941C17.512 3.257 16.452 3.55879 15.412 3.49737L15.4093 3.49559ZM13.8001 3.75198C13.8484 3.70569 13.8684 3.60331 13.8584 3.53565C13.567 3.0193 13.4249 2.26259 13.1299 1.77117C13.0862 1.69906 13.0616 1.63763 12.976 1.59935L7.75791 1.58333C7.63041 1.62428 7.60492 1.70707 7.54754 1.80856C7.45466 1.97326 6.8436 3.48312 6.84725 3.57838C6.8518 3.69678 6.99659 3.83655 7.125 3.82231C9.19037 3.68788 11.4734 3.99235 13.5133 3.82231C13.5998 3.81519 13.7373 3.81341 13.8001 3.75376V3.75198Z" fill="white"/>
<path d="M21.1199 13.1405C23.4312 12.8921 24.8026 15.3038 23.4885 17.1243L17.1112 23.3703C16.6841 23.665 14.5422 24.0069 14.0186 23.9259C13.4048 23.8306 12.8794 23.1629 12.8775 22.5673C12.8766 22.2006 13.2145 20.4129 13.3611 20.0826C13.4094 19.974 13.4804 19.8779 13.546 19.7791C15.6068 17.9523 17.4946 15.6056 19.5891 13.8518C20.0508 13.4645 20.4961 13.2081 21.1181 13.1414L21.1199 13.1405ZM21.435 14.6619C20.8121 14.6708 20.5061 15.2103 20.0881 15.5735L21.4833 16.8875C21.7137 16.624 22.3156 16.2163 22.3857 15.8842C22.5223 15.2379 22.1307 14.6521 21.435 14.6619ZM14.5295 22.3786L16.2087 22.0572L20.283 18.0742V17.9674L18.9589 16.6765L14.8591 20.6827L14.5295 22.3777V22.3786Z" fill="white"/>
<path d="M9.28678 10.7715C11.1882 10.9033 13.4622 10.5489 15.3208 10.7644C16.3107 10.8792 16.3398 12.1327 15.3836 12.3196L9.27859 12.3134C8.35973 12.1656 8.35063 10.9237 9.28678 10.7706V10.7715Z" fill="white"/>
<path d="M13.8501 16.819C13.7663 16.9018 13.5824 16.9908 13.4576 16.9997C12.1463 16.8706 10.4934 17.1698 9.22395 16.9935C8.40709 16.8795 8.37977 15.6572 9.22213 15.4952C10.5307 15.6145 12.1836 15.3216 13.4512 15.497C14.075 15.5833 14.2954 16.381 13.8501 16.819Z" fill="white"/>
<path d="M5.32544 10.7724C5.72431 10.7128 6.46194 10.7092 6.77157 10.9976C7.23509 11.4294 6.93731 12.2449 6.30258 12.3197C6.08311 12.3455 5.47297 12.3473 5.25896 12.3152C4.44665 12.1924 4.34557 10.9193 5.32453 10.7724H5.32544Z" fill="white"/>
<path d="M5.15788 15.5041C5.35731 15.4605 6.08038 15.4685 6.30167 15.4925C7.11397 15.5833 7.23236 16.7015 6.53388 16.957C6.35266 17.0237 5.41924 17.0309 5.20432 16.9961C4.45212 16.8733 4.43755 15.6608 5.15788 15.5041Z" fill="white"/>
</svg>
