<svg width="20" height="20" viewBox="0 0 20 20" fill="none" xmlns="http://www.w3.org/2000/svg">
<path d="M12.3561 14.902C10.4326 14.8996 8.58844 14.1345 7.22827 12.7745C5.8681 11.4144 5.10292 9.57046 5.10059 7.64706C5.10065 7.03186 5.32321 6.43744 5.72722 5.97346C6.13123 5.50948 6.68943 5.20726 7.29882 5.12255L8.54011 7.6049L7.52139 9.13235C7.46787 9.21291 7.43503 9.30543 7.4258 9.4017C7.41656 9.49798 7.43121 9.59505 7.46845 9.68431C8.0094 10.9704 9.03255 11.9934 10.3187 12.5343C10.408 12.5715 10.505 12.5862 10.6013 12.577C10.6976 12.5677 10.7901 12.5349 10.8707 12.4814L12.3983 11.4627L14.8809 12.7039C14.7962 13.3133 14.4939 13.8714 14.0299 14.2754C13.5659 14.6794 12.9714 14.9019 12.3561 14.902ZM10.003 2.20408e-07C8.26929 -0.000363697 6.56528 0.449929 5.05812 1.3067C3.55097 2.16347 2.29245 3.39729 1.40603 4.88712C0.519614 6.37694 0.0357485 8.07158 0.00190601 9.8048C-0.0319365 11.538 0.385407 13.2502 1.21299 14.7735L0.0736749 18.1922C-0.00698272 18.434 -0.018688 18.6935 0.039871 18.9416C0.09843 19.1897 0.224939 19.4167 0.405219 19.5969C0.585499 19.7772 0.812424 19.9037 1.06056 19.9622C1.3087 20.0208 1.56824 20.0091 1.8101 19.9284L5.22903 18.7892C6.56737 19.5154 8.05388 19.9265 9.57522 19.991C11.0966 20.0555 12.6125 19.7719 14.0076 19.1616C15.4026 18.5513 16.6399 17.6306 17.625 16.4696C18.6101 15.3086 19.3171 13.938 19.6921 12.4623C20.067 10.9867 20.1 9.44484 19.7885 7.95447C19.4771 6.46409 18.8293 5.06451 17.8948 3.86245C16.9602 2.66039 15.7635 1.68758 14.3958 1.01821C13.0282 0.348845 11.5257 0.000589078 10.003 2.20408e-07Z" fill="#014955"/>
</svg>
